<svg width="182" height="36" viewBox="0 0 182 36" fill="none" xmlns="http://www.w3.org/2000/svg">
<path d="M29.9999 3.4774C29.9999 3.17388 29.8923 2.88275 29.7007 2.66809L28.2565 1.0494C27.8579 0.602661 27.2109 0.602523 26.8122 1.0494C26.351 1.56621 1.35522 29.5779 0.896023 30.0925C-0.298674 31.4313 -0.298674 33.6096 0.896023 34.9485C2.0906 36.2872 4.03449 36.2872 5.22919 34.9485L9.52102 30.1388C11.1175 31.928 13.7018 31.9282 15.2985 30.1388C16.8914 28.3538 16.8914 25.4493 15.2985 23.6642C14.2254 22.4616 12.7164 22.0714 11.3518 22.4786L10.9654 22.0454L13.8541 18.8081L14.5763 19.6175C14.9751 20.0645 15.6218 20.0645 16.0206 19.6175C16.4195 19.1704 16.4195 18.4458 16.0206 17.9988L15.2985 17.1895L18.1873 13.9522L18.9095 14.7615C19.3082 15.2085 19.9549 15.2085 20.3538 14.7615C20.7527 14.3145 20.7527 13.5899 20.3538 13.1429L19.6316 12.3335L22.5204 9.09617L23.2426 9.90554C23.6414 10.3526 24.288 10.3526 24.687 9.90554C25.0859 9.45853 25.0859 8.73387 24.687 8.28693L23.9647 7.47769L27.5343 3.47733L27.9574 3.95139V32.2703C27.9574 32.978 27.4436 33.5537 26.8121 33.5537C26.1806 33.5537 25.6669 32.978 25.6669 32.2703V31.4609C25.6669 30.8288 25.2096 30.3164 24.6456 30.3164C24.0815 30.3164 23.6243 30.8288 23.6243 31.4609V32.2703C23.6243 34.2401 25.0543 35.8429 26.8122 35.8429C28.57 35.8429 30 34.2403 30 32.2703V3.4774H29.9999ZM8.46524 28.0846L3.78478 33.3298C3.3865 33.7762 2.73858 33.7761 2.34037 33.3298C1.94216 32.8835 1.9421 32.1574 2.34037 31.7111L9.52096 23.6642C8.45406 24.8598 8.10296 26.5573 8.46524 28.0846ZM13.854 25.2828C14.6504 26.1753 14.6504 27.6275 13.854 28.5201C13.0557 29.4147 11.7636 29.4148 10.9652 28.5201C10.1689 27.6276 10.1689 26.1754 10.9652 25.2828C11.7636 24.3882 13.0557 24.3881 13.854 25.2828Z" fill="#03045E"/>
<path d="M45.7216 30V12.5455H56.9034V15.196H48.8835V19.9347H56.1364V22.5852H48.8835V30H45.7216ZM62.466 12.5455V30H59.3041V12.5455H62.466ZM74.8958 17.3438C74.8163 16.5994 74.4811 16.0199 73.8901 15.6051C73.3049 15.1903 72.5436 14.983 71.6061 14.983C70.947 14.983 70.3816 15.0824 69.91 15.2812C69.4384 15.4801 69.0776 15.75 68.8276 16.0909C68.5776 16.4318 68.4498 16.821 68.4441 17.2585C68.4441 17.6222 68.5265 17.9375 68.6913 18.2045C68.8617 18.4716 69.0918 18.6989 69.3816 18.8864C69.6714 19.0682 69.9924 19.2216 70.3447 19.3466C70.697 19.4716 71.0521 19.5767 71.41 19.6619L73.0464 20.071C73.7055 20.2244 74.339 20.4318 74.947 20.6932C75.5606 20.9545 76.1089 21.2841 76.5918 21.6818C77.0805 22.0795 77.4668 22.5597 77.7509 23.1222C78.035 23.6847 78.1771 24.3437 78.1771 25.0994C78.1771 26.1222 77.9157 27.0227 77.393 27.8011C76.8703 28.5739 76.1146 29.179 75.1259 29.6165C74.143 30.0483 72.9526 30.2642 71.5549 30.2642C70.197 30.2642 69.018 30.054 68.018 29.6335C67.0237 29.2131 66.2453 28.5994 65.6828 27.7926C65.1259 26.9858 64.8248 26.0028 64.7793 24.8438H67.8901C67.9356 25.4517 68.1231 25.9574 68.4526 26.3608C68.7822 26.7642 69.2112 27.0653 69.7396 27.2642C70.2737 27.4631 70.8703 27.5625 71.5293 27.5625C72.2168 27.5625 72.8191 27.4602 73.3362 27.2557C73.8589 27.0455 74.268 26.7557 74.5634 26.3864C74.8589 26.0114 75.0095 25.5739 75.0151 25.0739C75.0095 24.6193 74.8759 24.2443 74.6146 23.9489C74.3532 23.6477 73.9867 23.3977 73.5151 23.1989C73.0492 22.9943 72.5038 22.8125 71.8788 22.6534L69.893 22.142C68.4555 21.7727 67.3191 21.2131 66.4839 20.4631C65.6543 19.7074 65.2396 18.7045 65.2396 17.4545C65.2396 16.4261 65.518 15.5256 66.0748 14.7528C66.6373 13.9801 67.4015 13.3807 68.3674 12.9545C69.3333 12.5227 70.4271 12.3068 71.6487 12.3068C72.8873 12.3068 73.9725 12.5227 74.9043 12.9545C75.8418 13.3807 76.5776 13.9744 77.1117 14.7358C77.6458 15.4915 77.9214 16.3608 77.9384 17.3438H74.8958ZM80.516 30V12.5455H83.6779V19.9347H91.766V12.5455H94.9364V30H91.766V22.5852H83.6779V30H80.516ZM97.8953 30V12.5455H109.248V15.196H101.057V19.9347H108.66V22.5852H101.057V27.3494H109.316V30H97.8953ZM111.993 30V12.5455H118.539C119.88 12.5455 121.005 12.7784 121.914 13.2443C122.829 13.7102 123.519 14.3636 123.985 15.2045C124.457 16.0398 124.692 17.0142 124.692 18.1278C124.692 19.2472 124.454 20.2187 123.976 21.0426C123.505 21.8608 122.809 22.4943 121.888 22.9432C120.968 23.3864 119.837 23.608 118.496 23.608H113.834V20.983H118.07C118.854 20.983 119.496 20.875 119.996 20.6591C120.496 20.4375 120.866 20.1165 121.104 19.696C121.349 19.2699 121.471 18.7472 121.471 18.1278C121.471 17.5085 121.349 16.9801 121.104 16.5426C120.86 16.0994 120.488 15.7642 119.988 15.5369C119.488 15.304 118.843 15.1875 118.053 15.1875H115.155V30H111.993ZM121.011 22.0909L125.332 30H121.803L117.559 22.0909H121.011ZM127.123 12.5455H130.992L136.174 25.1932H136.379L141.56 12.5455H145.43V30H142.396V18.0085H142.234L137.41 29.9489H135.143L130.319 17.983H130.157V30H127.123V12.5455ZM150.634 30H147.259L153.404 12.5455H157.308L163.461 30H160.086L155.424 16.125H155.288L150.634 30ZM150.745 23.1562H159.95V25.696H150.745V23.1562ZM179.624 12.5455V30H176.811L168.587 18.1108H168.442V30H165.28V12.5455H168.11L176.325 24.4432H176.479V12.5455H179.624Z" fill="#03045E"/>
</svg>
