<svg width="182" height="36" viewBox="0 0 182 36" fill="none" xmlns="http://www.w3.org/2000/svg">
<path d="M29.9999 2.7631C29.9999 2.45958 29.8923 2.16846 29.7007 1.95379L28.2565 0.335107C27.8579 -0.111634 27.2109 -0.111771 26.8122 0.335107C26.351 0.851911 1.35522 28.8636 0.896023 29.3782C-0.298674 30.717 -0.298674 32.8953 0.896023 34.2342C2.0906 35.5729 4.03449 35.573 5.22919 34.2342L9.52102 29.4245C11.1175 31.2137 13.7018 31.2139 15.2985 29.4245C16.8914 27.6395 16.8914 24.735 15.2985 22.9499C14.2254 21.7473 12.7164 21.3571 11.3518 21.7643L10.9654 21.3312L13.8541 18.0938L14.5763 18.9032C14.9751 19.3502 15.6218 19.3502 16.0206 18.9032C16.4195 18.4561 16.4195 17.7315 16.0206 17.2845L15.2985 16.4752L18.1873 13.2379L18.9095 14.0472C19.3082 14.4943 19.9549 14.4943 20.3538 14.0472C20.7527 13.6002 20.7527 12.8756 20.3538 12.4286L19.6316 11.6192L22.5204 8.38187L23.2426 9.19125C23.6414 9.63827 24.288 9.63827 24.687 9.19125C25.0859 8.74423 25.0859 8.01958 24.687 7.57263L23.9647 6.76339L27.5343 2.76303L27.9574 3.2371V31.556C27.9574 32.2637 27.4436 32.8395 26.8121 32.8395C26.1806 32.8395 25.6669 32.2637 25.6669 31.556V30.7466C25.6669 30.1145 25.2096 29.6021 24.6456 29.6021C24.0815 29.6021 23.6243 30.1145 23.6243 30.7466V31.556C23.6243 33.5258 25.0543 35.1286 26.8122 35.1286C28.57 35.1286 30 33.526 30 31.556V2.7631H29.9999ZM8.46524 27.3703L3.78478 32.6155C3.3865 33.0619 2.73858 33.0618 2.34037 32.6155C1.94216 32.1692 1.9421 31.4431 2.34037 30.9968L9.52096 22.9499C8.45406 24.1455 8.10296 25.843 8.46524 27.3703ZM13.854 24.5685C14.6504 25.461 14.6504 26.9132 13.854 27.8058C13.0557 28.7004 11.7636 28.7005 10.9652 27.8058C10.1689 26.9133 10.1689 25.4611 10.9652 24.5685C11.7636 23.6739 13.0557 23.6738 13.854 24.5685Z" fill="white"/>
<path d="M45.7216 29.2857V11.8312H56.9034V14.4817H48.8835V19.2204H56.1364V21.8709H48.8835V29.2857H45.7216ZM62.466 11.8312V29.2857H59.3041V11.8312H62.466ZM74.8958 16.6295C74.8163 15.8851 74.4811 15.3056 73.8901 14.8908C73.3049 14.476 72.5436 14.2687 71.6061 14.2687C70.947 14.2687 70.3816 14.3681 69.91 14.567C69.4384 14.7658 69.0776 15.0357 68.8276 15.3766C68.5776 15.7175 68.4498 16.1067 68.4441 16.5442C68.4441 16.9079 68.5265 17.2232 68.6913 17.4903C68.8617 17.7573 69.0918 17.9846 69.3816 18.1721C69.6714 18.3539 69.9924 18.5073 70.3447 18.6323C70.697 18.7573 71.0521 18.8624 71.41 18.9476L73.0464 19.3567C73.7055 19.5101 74.339 19.7175 74.947 19.9789C75.5606 20.2403 76.1089 20.5698 76.5918 20.9675C77.0805 21.3653 77.4668 21.8454 77.7509 22.4079C78.035 22.9704 78.1771 23.6295 78.1771 24.3851C78.1771 25.4079 77.9157 26.3084 77.393 27.0868C76.8703 27.8596 76.1146 28.4647 75.1259 28.9022C74.143 29.334 72.9526 29.5499 71.5549 29.5499C70.197 29.5499 69.018 29.3397 68.018 28.9192C67.0237 28.4988 66.2453 27.8851 65.6828 27.0783C65.1259 26.2715 64.8248 25.2885 64.7793 24.1295H67.8901C67.9356 24.7374 68.1231 25.2431 68.4526 25.6465C68.7822 26.0499 69.2112 26.351 69.7396 26.5499C70.2737 26.7488 70.8703 26.8482 71.5293 26.8482C72.2168 26.8482 72.8191 26.7459 73.3362 26.5414C73.8589 26.3312 74.268 26.0414 74.5634 25.6721C74.8589 25.2971 75.0095 24.8596 75.0151 24.3596C75.0095 23.905 74.8759 23.53 74.6146 23.2346C74.3532 22.9334 73.9867 22.6834 73.5151 22.4846C73.0492 22.28 72.5038 22.0982 71.8788 21.9391L69.893 21.4278C68.4555 21.0584 67.3191 20.4988 66.4839 19.7488C65.6543 18.9931 65.2396 17.9903 65.2396 16.7403C65.2396 15.7118 65.518 14.8113 66.0748 14.0385C66.6373 13.2658 67.4015 12.6664 68.3674 12.2403C69.3333 11.8084 70.4271 11.5925 71.6487 11.5925C72.8873 11.5925 73.9725 11.8084 74.9043 12.2403C75.8418 12.6664 76.5776 13.2601 77.1117 14.0215C77.6458 14.7772 77.9214 15.6465 77.9384 16.6295H74.8958ZM80.516 29.2857V11.8312H83.6779V19.2204H91.766V11.8312H94.9364V29.2857H91.766V21.8709H83.6779V29.2857H80.516ZM97.8953 29.2857V11.8312H109.248V14.4817H101.057V19.2204H108.66V21.8709H101.057V26.6351H109.316V29.2857H97.8953ZM111.993 29.2857V11.8312H118.539C119.88 11.8312 121.005 12.0641 121.914 12.53C122.829 12.9959 123.519 13.6493 123.985 14.4903C124.457 15.3255 124.692 16.2999 124.692 17.4135C124.692 18.5329 124.454 19.5045 123.976 20.3283C123.505 21.1465 122.809 21.78 121.888 22.2289C120.968 22.6721 119.837 22.8937 118.496 22.8937H113.834V20.2687H118.07C118.854 20.2687 119.496 20.1607 119.996 19.9448C120.496 19.7232 120.866 19.4022 121.104 18.9817C121.349 18.5556 121.471 18.0329 121.471 17.4135C121.471 16.7942 121.349 16.2658 121.104 15.8283C120.86 15.3851 120.488 15.0499 119.988 14.8226C119.488 14.5897 118.843 14.4732 118.053 14.4732H115.155V29.2857H111.993ZM121.011 21.3766L125.332 29.2857H121.803L117.559 21.3766H121.011ZM127.123 11.8312H130.992L136.174 24.4789H136.379L141.56 11.8312H145.43V29.2857H142.396V17.2942H142.234L137.41 29.2346H135.143L130.319 17.2687H130.157V29.2857H127.123V11.8312ZM150.634 29.2857H147.259L153.404 11.8312H157.308L163.461 29.2857H160.086L155.424 15.4107H155.288L150.634 29.2857ZM150.745 22.442H159.95V24.9817H150.745V22.442ZM179.624 11.8312V29.2857H176.811L168.587 17.3965H168.442V29.2857H165.28V11.8312H168.11L176.325 23.7289H176.479V11.8312H179.624Z" fill="white"/>
</svg>
