<svg width="182" height="41" viewBox="0 0 182 41" fill="none" xmlns="http://www.w3.org/2000/svg">
<path d="M29.9999 2.75106C29.9999 2.48548 29.8923 2.23074 29.7007 2.04291L28.2565 0.626562C27.8579 0.235664 27.2109 0.235544 26.8122 0.626562C26.351 1.07877 1.35522 25.589 0.896023 26.0393C-0.298674 27.2107 -0.298674 29.1168 0.896023 30.2883C2.0906 31.4596 4.03449 31.4597 5.22919 30.2883L9.52102 26.0798C11.1175 27.6454 13.7018 27.6455 15.2985 26.0798C16.8914 24.5179 16.8914 21.9765 15.2985 20.4145C14.2254 19.3623 12.7164 19.0208 11.3518 19.3771L10.9654 18.9981L13.8541 16.1654L14.5763 16.8736C14.9751 17.2647 15.6218 17.2647 16.0206 16.8736C16.4195 16.4825 16.4195 15.8484 16.0206 15.4573L15.2985 14.7491L18.1873 11.9165L18.9095 12.6247C19.3082 13.0158 19.9549 13.0158 20.3538 12.6247C20.7527 12.2335 20.7527 11.5995 20.3538 11.2084L19.6316 10.5002L22.5204 7.66748L23.2426 8.37569C23.6414 8.76683 24.288 8.76683 24.687 8.37569C25.0859 7.98455 25.0859 7.35048 24.687 6.9594L23.9647 6.25131L27.5343 2.751L27.9574 3.1658V27.9449C27.9574 28.5641 27.4436 29.0679 26.8121 29.0679C26.1806 29.0679 25.6669 28.5641 25.6669 27.9449V27.2366C25.6669 26.6836 25.2096 26.2352 24.6456 26.2352C24.0815 26.2352 23.6243 26.6836 23.6243 27.2366V27.9449C23.6243 29.6685 25.0543 31.0708 26.8122 31.0708C28.57 31.0708 30 29.6686 30 27.9449V2.75106H29.9999ZM8.46524 24.2824L3.78478 28.8719C3.3865 29.2625 2.73858 29.2624 2.34037 28.8719C1.94216 28.4814 1.9421 27.846 2.34037 27.4556L9.52096 20.4145C8.45406 21.4606 8.10296 22.946 8.46524 24.2824ZM13.854 21.8308C14.6504 22.6118 14.6504 23.8824 13.854 24.6634C13.0557 25.4462 11.7636 25.4463 10.9652 24.6634C10.1689 23.8825 10.1689 22.6118 10.9652 21.8308C11.7636 21.048 13.0557 21.0479 13.854 21.8308Z" fill="white"/>
<path d="M45.7216 35V17.5455H56.9034V20.196H48.8835V24.9347H56.1364V27.5852H48.8835V35H45.7216ZM62.466 17.5455V35H59.3041V17.5455H62.466ZM74.8958 22.3438C74.8163 21.5994 74.4811 21.0199 73.8901 20.6051C73.3049 20.1903 72.5436 19.983 71.6061 19.983C70.947 19.983 70.3816 20.0824 69.91 20.2812C69.4384 20.4801 69.0776 20.75 68.8276 21.0909C68.5776 21.4318 68.4498 21.821 68.4441 22.2585C68.4441 22.6222 68.5265 22.9375 68.6913 23.2045C68.8617 23.4716 69.0918 23.6989 69.3816 23.8864C69.6714 24.0682 69.9924 24.2216 70.3447 24.3466C70.697 24.4716 71.0521 24.5767 71.41 24.6619L73.0464 25.071C73.7055 25.2244 74.339 25.4318 74.947 25.6932C75.5606 25.9545 76.1089 26.2841 76.5918 26.6818C77.0805 27.0795 77.4668 27.5597 77.7509 28.1222C78.035 28.6847 78.1771 29.3437 78.1771 30.0994C78.1771 31.1222 77.9157 32.0227 77.393 32.8011C76.8703 33.5739 76.1146 34.179 75.1259 34.6165C74.143 35.0483 72.9526 35.2642 71.5549 35.2642C70.197 35.2642 69.018 35.054 68.018 34.6335C67.0237 34.2131 66.2453 33.5994 65.6828 32.7926C65.1259 31.9858 64.8248 31.0028 64.7793 29.8438H67.8901C67.9356 30.4517 68.1231 30.9574 68.4526 31.3608C68.7822 31.7642 69.2112 32.0653 69.7396 32.2642C70.2737 32.4631 70.8703 32.5625 71.5293 32.5625C72.2168 32.5625 72.8191 32.4602 73.3362 32.2557C73.8589 32.0455 74.268 31.7557 74.5634 31.3864C74.8589 31.0114 75.0095 30.5739 75.0151 30.0739C75.0095 29.6193 74.8759 29.2443 74.6146 28.9489C74.3532 28.6477 73.9867 28.3977 73.5151 28.1989C73.0492 27.9943 72.5038 27.8125 71.8788 27.6534L69.893 27.142C68.4555 26.7727 67.3191 26.2131 66.4839 25.4631C65.6543 24.7074 65.2396 23.7045 65.2396 22.4545C65.2396 21.4261 65.518 20.5256 66.0748 19.7528C66.6373 18.9801 67.4015 18.3807 68.3674 17.9545C69.3333 17.5227 70.4271 17.3068 71.6487 17.3068C72.8873 17.3068 73.9725 17.5227 74.9043 17.9545C75.8418 18.3807 76.5776 18.9744 77.1117 19.7358C77.6458 20.4915 77.9214 21.3608 77.9384 22.3438H74.8958ZM80.516 35V17.5455H83.6779V24.9347H91.766V17.5455H94.9364V35H91.766V27.5852H83.6779V35H80.516ZM97.8953 35V17.5455H109.248V20.196H101.057V24.9347H108.66V27.5852H101.057V32.3494H109.316V35H97.8953ZM111.993 35V17.5455H118.539C119.88 17.5455 121.005 17.7784 121.914 18.2443C122.829 18.7102 123.519 19.3636 123.985 20.2045C124.457 21.0398 124.692 22.0142 124.692 23.1278C124.692 24.2472 124.454 25.2187 123.976 26.0426C123.505 26.8608 122.809 27.4943 121.888 27.9432C120.968 28.3864 119.837 28.608 118.496 28.608H113.834V25.983H118.07C118.854 25.983 119.496 25.875 119.996 25.6591C120.496 25.4375 120.866 25.1165 121.104 24.696C121.349 24.2699 121.471 23.7472 121.471 23.1278C121.471 22.5085 121.349 21.9801 121.104 21.5426C120.86 21.0994 120.488 20.7642 119.988 20.5369C119.488 20.304 118.843 20.1875 118.053 20.1875H115.155V35H111.993ZM121.011 27.0909L125.332 35H121.803L117.559 27.0909H121.011ZM127.123 17.5455H130.992L136.174 30.1932H136.379L141.56 17.5455H145.43V35H142.396V23.0085H142.234L137.41 34.9489H135.143L130.319 22.983H130.157V35H127.123V17.5455ZM150.634 35H147.259L153.404 17.5455H157.308L163.461 35H160.086L155.424 21.125H155.288L150.634 35ZM150.745 28.1562H159.95V30.696H150.745V28.1562ZM179.624 17.5455V35H176.811L168.587 23.1108H168.442V35H165.28V17.5455H168.11L176.325 29.4432H176.479V17.5455H179.624Z" fill="white"/>
</svg>
